<svg width="14" height="14" viewBox="0 0 24 24" fill="none" xmlns="http://www.w3.org/2000/svg">
<path d="M12 22.75C6.07 22.75 1.25 17.93 1.25 12C1.25 6.07 6.07 1.25 12 1.25C17.93 1.25 22.75 6.07 22.75 12C22.75 17.93 17.93 22.75 12 22.75ZM12 2.75C6.9 2.75 2.75 6.9 2.75 12C2.75 17.1 6.9 21.25 12 21.25C17.1 21.25 21.25 17.1 21.25 12C21.25 6.9 17.1 2.75 12 2.75Z" fill="var(--primary-1)"/>
<path d="M12 13.75C11.59 13.75 11.25 13.41 11.25 13V8C11.25 7.59 11.59 7.25 12 7.25C12.41 7.25 12.75 7.59 12.75 8V13C12.75 13.41 12.41 13.75 12 13.75ZM12 16.999C11.87 16.999 11.74 16.969 11.62 16.919C11.5 16.869 11.39 16.799 11.29 16.709C11.2 16.609 11.13 16.509 11.08 16.379C11.0286 16.2588 11.0015 16.1297 11 15.999C11 15.869 11.03 15.739 11.08 15.619C11.13 15.499 11.2 15.389 11.29 15.289C11.39 15.199 11.5 15.129 11.62 15.079C11.8635 14.979 12.1365 14.979 12.38 15.079C12.5 15.129 12.61 15.199 12.71 15.289C12.8 15.389 12.87 15.499 12.92 15.619C12.97 15.739 13 15.869 13 15.999C13 16.129 12.97 16.259 12.92 16.379C12.87 16.509 12.8 16.609 12.71 16.709C12.61 16.799 12.5 16.869 12.38 16.919C12.26 16.969 12.13 16.999 12 16.999Z" fill="var(--primary-1)"/>
</svg>
